# xmcd
#
# Track frame offsets:
#	150
#	13862
#	22328
#	34849
#	51976
#	68325
#	86959
#	97771
#	113721
#	128819
#	136540
#	152127
#	163721
#	174166
#
# Disc length: 2464 seconds
#
# Revision: 0
# Processed by: cddbd v1.5.2PL0 Copyright (c) Steve Scherf et al.
# Submitted via: dBpowerAMP V4.0
#
DISCID=ad099e0e
DTITLE=The McPeak Brothers - Yesteryears, The Best of
DYEAR=2011
DGENRE=Bluegrass
TTITLE0=Back to Dixie
TTITLE1=Shoulder to Shoulder
TTITLE2=Lost River
TTITLE3=Bend in the River
TTITLE4=The Last Time
TTITLE5=Steel Rails
TTITLE6=Kentucky Road
TTITLE7=Shelly's Winter Love
TTITLE8=You Won't Ever Forget Me
TTITLE9=Yesteryears
TTITLE10=Simon Crutchfield's Grave
TTITLE11=Old Blue Tomorrow
TTITLE12=Livin' with the Shades Pulled Down
TTITLE13=Preachin' Up a Storm
EXTD=
EXTT0=
EXTT1=
EXTT2=
EXTT3=
EXTT4=
EXTT5=
EXTT6=
EXTT7=
EXTT8=
EXTT9=
EXTT10=
EXTT11=
EXTT12=
EXTT13=
PLAYORDER=
